<svg xmlns="http://www.w3.org/2000/svg" width="64" height="64" viewBox="0 0 64 64" role="img" aria-label="VeriSynth">
  <defs>
    <linearGradient id="vs-grad" x1="0" x2="1" y1="0" y2="1">
      <stop offset="0%" stop-color="#2563EB"/>
      <stop offset="100%" stop-color="#60A5FA"/>
    </linearGradient>
    <filter id="soft" x="-10%" y="-10%" width="120%" height="120%">
      <feDropShadow dx="0" dy="2" stdDeviation="2" flood-color="#1E40AF" flood-opacity="0.25"/>
    </filter>
  </defs>
  <rect x="4" y="4" width="56" height="56" rx="14" fill="url(#vs-grad)" filter="url(#soft)"/>
  <!-- Shield with check -->
  <path fill="#ffffff" d="M32 16l12 5v8c0 8-6.7 13.3-12 15-5.3-1.7-12-7-12-15v-8l12-5z" opacity="0.95"/>
  <path fill="#1e3a8a" d="M28.2 34.6l-4.1-4.1a1.6 1.6 0 0 1 2.2-2.2l3 3 8.6-8.6a1.6 1.6 0 1 1 2.2 2.2l-9.7 9.7a1.6 1.6 0 0 1-2.2 0z" opacity="0.9"/>
</svg>